<svg width="214" height="36" viewBox="0 0 214 36" fill="none" xmlns="http://www.w3.org/2000/svg">
<path d="M61.404 23.5122L61.0575 20.9329C60.6725 20.8944 59.8641 20.856 58.8632 20.856H56.8229C56.3225 20.856 55.899 20.856 55.514 20.8944V23.8202C55.514 26.3224 55.5525 27.9393 55.591 28.6322C56.5149 28.7477 57.4004 28.7862 58.9402 28.7862H61.019C62.9823 28.7862 63.1363 28.7477 63.7522 28.6322L65.8695 24.7826L68.0638 25.206L66.3315 31.4424C64.8301 31.3269 62.5973 31.2114 60.9805 31.2114H47.7378L47.6223 29.2866L50.0861 28.6707C50.2401 28.3627 50.3556 25.899 50.3556 22.7423V17.0833C50.3556 13.8881 50.2401 11.4244 50.0861 11.1549L47.6223 10.539L47.7378 8.61417H59.5946C61.173 8.61417 63.9062 8.53717 65.4076 8.42168L66.447 14.1191L64.2142 14.4271L62.7898 11.0394C62.0969 10.8854 61.6349 10.8469 61.019 10.8469H58.0933C57.0924 10.8469 56.1685 10.8854 55.591 10.9624C55.5525 11.5784 55.514 13.1567 55.514 15.6975V18.3152C55.899 18.3537 56.3225 18.3537 56.8229 18.3537H58.8632C59.8641 18.3537 60.6725 18.3152 61.0575 18.3152L61.404 15.736H63.5597V23.5122H61.404ZM78.6887 31.5194C73.8382 31.5194 70.0271 28.0547 70.0271 23.1657C70.0271 18.2767 73.9922 14.0036 79.6127 14.0036C83.0003 14.0036 85.6181 15.505 85.6181 17.5068C85.6181 18.7772 84.6941 19.4316 83.5778 19.4316C82.6154 19.4316 81.9609 19.1236 80.9985 18.2767L78.7272 16.3134C76.9564 16.7369 75.4551 18.6232 75.4551 21.8184C75.4551 25.745 77.6108 27.7853 80.4596 27.7853C81.9224 27.7853 83.3083 27.2463 84.6557 25.6295L85.8875 26.7459C84.4247 29.9026 81.6529 31.5194 78.6887 31.5194ZM86.9269 31.2114L86.8114 29.4406L89.1982 28.7862C89.2752 27.9777 89.4292 24.7826 89.4292 22.1648V17.3143C89.4292 13.8112 89.3522 10 89.1982 8.3062L86.3495 7.92123L86.2725 6.2659L93.5483 4.37958L94.6262 5.03402C94.4337 8.15221 94.3567 10.5775 94.2412 16.9678L94.3567 17.0063C95.935 15.0045 97.8598 14.0036 100.016 14.0036C103.288 14.0036 105.79 16.5444 105.79 20.9329V24.8981C105.79 26.6304 105.867 28.3627 105.983 28.7862L108.369 29.4406L108.254 31.2114H98.6298L98.5143 29.4406L100.67 28.7862C100.786 28.0932 100.863 26.3609 100.863 24.9365V21.7029C100.863 18.7772 99.3997 17.5838 97.6289 17.5838C96.397 17.5838 95.2036 18.1612 94.3567 19.2391V24.8981C94.3567 26.8229 94.4337 28.4012 94.5492 28.7862L96.8589 29.4406L96.7435 31.2114H86.9269ZM119.225 31.5194C113.874 31.5194 110.14 27.9777 110.14 22.9347C110.14 17.2758 114.567 14.0036 119.379 14.0036C124.499 14.0036 128.002 17.5453 128.002 22.5498C128.002 27.5928 124.114 31.5194 119.225 31.5194ZM119.61 29.0556C121.535 29.0556 122.651 27.0923 122.651 23.7817C122.651 19.3546 121.112 16.3134 118.763 16.3134C116.8 16.3134 115.607 18.4307 115.607 21.8184C115.607 25.9759 117.3 29.0556 119.61 29.0556ZM130.736 8.61417H141.014L141.13 10.539L138.704 11.1549C138.589 11.9633 138.473 14.0421 138.512 17.0833V21.0869C138.512 25.6295 140.398 27.9777 143.978 27.9777C147.52 27.9777 149.252 25.7065 149.252 21.0484V17.7763C149.252 14.3116 149.137 11.3859 149.021 11.1549L146.327 10.539L146.442 8.61417H154.988L155.104 10.539L152.678 11.1549C152.563 11.3859 152.447 14.3116 152.447 17.7763V21.7029C152.447 27.8238 148.906 31.5579 143.285 31.5579C136.856 31.5579 133.276 28.0162 133.276 21.7799V17.0833C133.276 13.8881 133.161 11.4244 133.084 11.1549L130.62 10.539L130.736 8.61417ZM157.952 31.2114L157.837 29.2866L160.301 28.6707C160.339 28.0162 160.416 24.7826 160.416 22.7423V17.0833C160.416 13.8881 160.301 11.4244 160.147 11.1549L157.683 10.539L157.798 8.61417H167.73C173.62 8.61417 176.392 10.462 176.392 14.4656C176.392 17.1603 174.506 19.3161 171.58 20.3555L175.468 25.7835C177.046 28.0162 178.548 29.1711 180.511 29.6716L180.473 31.4424C179.626 31.5964 178.817 31.6734 178.047 31.6734C173.736 31.6734 170.926 29.6716 168.808 25.129L166.922 21.0099H165.575V22.7423C165.575 24.8211 165.652 27.6698 165.729 28.6707L167.884 29.2866L167.769 31.2114H157.952ZM165.652 10.77C165.575 11.0779 165.575 13.7727 165.575 16.7754V18.7772H166.691C169.232 18.7772 170.964 17.0833 170.964 14.4656C170.964 12.0788 169.617 10.77 167.114 10.77H165.652ZM199.528 31.4809C197.565 31.3269 194.793 31.2114 193.523 31.2114H181.859L181.743 29.2866L184.207 28.6707C184.322 28.2857 184.438 25.6295 184.438 22.7423V17.0833C184.438 14.1191 184.322 11.5014 184.207 11.1549L181.743 10.539L181.859 8.61417H192.984L193.099 10.616L189.904 11.1934C189.789 11.4629 189.635 13.8881 189.635 17.0833V22.7423C189.635 25.745 189.673 27.5543 189.789 28.2087C190.636 28.3627 191.483 28.4012 192.868 28.4012H194.293C195.409 28.4012 196.333 28.2857 196.872 28.1702L199.028 23.9741L201.415 24.5901L199.528 31.4809Z" fill="#FDC36F"/>
<path d="M6.42422 13.3263C7.12407 -4.61049 13.9951 0.906211 17.3431 5.90666C24.5749 -2.51742 27.0092 5.30186 27.7436 9.30869C37.8525 10.501 34.2021 15.4756 30.6921 18.7696C34.8393 26.3902 28.9641 27.7337 25.508 27.4529C24.523 37.2767 18.7255 34.2678 15.9499 31.5353C2.57506 38.0672 4.02659 28.8137 6.42422 23.3704C-3.39956 19.3269 2.33098 14.9896 6.42422 13.3263Z" fill="url(#paint0_linear_31_12)" stroke="#FDAC50" stroke-width="0.492751"/>
<circle cx="17.8609" cy="18.3155" r="8.27009" fill="url(#paint1_linear_31_12)" stroke="#FEA540" stroke-width="0.0487911"/>
<path d="M18.2688 15.5561C18.9939 16.0049 20.5923 16.3401 21.1852 14.0898M15.9189 22.429C17.5525 22.9477 20.5302 23.6044 22.3838 19.8521" stroke="#333333" stroke-width="0.723338" stroke-linejoin="round" stroke-dasharray="0.01 0.01"/>
<path d="M12.5728 17.6568C13.3715 18.0087 15.1951 18.2624 16.099 16.4614" stroke="#333333" stroke-width="0.723338" stroke-linejoin="round" stroke-dasharray="0.01 0.01"/>
<defs>
<linearGradient id="paint0_linear_31_12" x1="17.6642" y1="0.999999" x2="65.784" y2="55.4764" gradientUnits="userSpaceOnUse">
<stop stop-color="#FDC36F"/>
<stop offset="1" stop-color="#ECC791"/>
</linearGradient>
<linearGradient id="paint1_linear_31_12" x1="9.589" y1="12.6181" x2="27.5368" y2="34.7703" gradientUnits="userSpaceOnUse">
<stop stop-color="#FEA540"/>
<stop offset="1" stop-color="#FF8800"/>
</linearGradient>
</defs>
</svg>
